HIERARCHY
ROOT Hips
{
	OFFSET 0.0000 0.0000 0.0000
	CHANNELS 6 Xposition Yposition Zposition Zrotation Xrotation Yrotation
	JOINT Ab
	{
		OFFSET -0.0000 8.1305 -0.0000
		CHANNELS 3 Zrotation Xrotation Yrotation
		JOINT Chest
		{
			OFFSET -0.0000 26.2902 -0.0000
			CHANNELS 3 Zrotation Xrotation Yrotation
			JOINT Neck
			{
				OFFSET -0.0000 26.2902 0.0000
				CHANNELS 3 Zrotation Xrotation Yrotation
				JOINT Head
				{
					OFFSET -0.0000 10.8167 0.0000
					CHANNELS 3 Zrotation Xrotation Yrotation
					End Site
					{
						OFFSET -0.0000 16.7167 0.0000
					}
				}
			}
			JOINT LeftCollar
			{
				OFFSET -0.0000 26.2902 0.0000
				CHANNELS 3 Zrotation Xrotation Yrotation
				JOINT LeftShoulder
				{
					OFFSET 19.6667 -0.0000 0.0000
					CHANNELS 3 Zrotation Xrotation Yrotation
					JOINT LeftElbow
					{
						OFFSET 27.2190 0.0000 0.0000
						CHANNELS 3 Zrotation Xrotation Yrotation
						JOINT LeftWrist
						{
							OFFSET 30.7431 0.0000 0.0000
							CHANNELS 3 Zrotation Xrotation Yrotation
							End Site
							{
								OFFSET 0.0000 -14.7500 0.0000
							}
						}
					}
				}
			}
			JOINT RightCollar
			{
				OFFSET -0.0000 26.2902 0.0000
				CHANNELS 3 Zrotation Xrotation Yrotation
				JOINT RightShoulder
				{
					OFFSET -19.6667 0.0000 0.0000
					CHANNELS 3 Zrotation Xrotation Yrotation
					JOINT RightElbow
					{
						OFFSET -27.2190 0.0000 0.0000
						CHANNELS 3 Zrotation Xrotation Yrotation
						JOINT RightWrist
						{
							OFFSET -30.7431 0.0000 0.0000
							CHANNELS 3 Zrotation Xrotation Yrotation
							End Site
							{
								OFFSET -0.0000 -14.7500 0.0000
							}
						}
					}
				}
			}
		}
	}
	JOINT LeftHip
	{
		OFFSET 11.8000 0.0000 0.0000
		CHANNELS 3 Zrotation Xrotation Yrotation
		JOINT LeftKnee
		{
			OFFSET -0.0000 -39.7832 0.0000
			CHANNELS 3 Zrotation Xrotation Yrotation
			JOINT LeftAnkle
			{
				OFFSET -0.0000 -41.7317 0.0000
				CHANNELS 3 Zrotation Xrotation Yrotation
				End Site
				{
					OFFSET -0.0000 -4.9167 16.7167
				}
			}
		}
	}
	JOINT RightHip
	{
		OFFSET -11.8000 0.0000 0.0000
		CHANNELS 3 Zrotation Xrotation Yrotation
		JOINT RightKnee
		{
			OFFSET -0.0000 -39.7832 0.0000
			CHANNELS 3 Zrotation Xrotation Yrotation
			JOINT RightAnkle
			{
				OFFSET -0.0000 -41.7317 0.0000
				CHANNELS 3 Zrotation Xrotation Yrotation
				End Site
				{
					OFFSET -0.0000 -4.9167 16.7167
				}
			}
		}
	}
}
MOTION
Frames: 11
Frame Time: 0.010000
-9.9694 88.1451 128.0116 359.4600 340.3244 181.0678 2.7791 351.3551 358.4477 4.5211 8.1533 357.9248 359.2219 333.2262 4.3761 353.4295 8.9941 5.0799 338.5708 356.4701 18.3045 342.0782 54.9474 323.0269 13.1694 348.1139 272.3028 96.6417 358.1682 358.6562 26.4656 356.1210 343.4599 43.8013 31.3370 347.0208 346.3050 350.1032 66.0703 269.4654 354.3457 14.5569 2.5456 357.9786 359.5968 0.3264 40.7476 4.4779 343.1356 350.4564 13.0425 352.5424 322.2125 4.4896 18.7750 44.6916 11.5775 345.3487 332.5398 307.8220 
-9.4405 87.9420 126.8858 359.7686 339.9069 180.7856 2.8267 351.2655 358.8593 5.1169 7.9775 358.2929 359.1019 333.2934 4.1609 353.4384 8.6280 4.8520 338.3943 356.4828 18.0609 340.7407 54.9019 325.1022 12.5162 348.8686 273.2339 98.2581 358.5566 358.4446 26.5776 356.0473 343.3297 43.3499 32.8553 348.4451 344.8691 349.1747 66.0382 268.9355 354.8543 13.1628 2.8800 355.7749 359.6317 0.1056 44.9128 5.2891 345.2376 351.8697 12.9618 353.5950 322.5109 4.9393 18.4806 45.1993 12.0061 344.0386 333.1163 307.3771 
-8.9575 87.7338 125.5981 359.9546 339.9488 180.4422 2.7992 351.4184 359.2119 5.6347 7.9443 358.6140 359.0038 333.4815 3.9914 353.4765 8.4070 4.6954 338.2631 356.4918 17.9981 339.7679 55.0007 326.7180 12.0883 349.3414 274.7203 98.1019 357.7713 357.6103 26.5503 356.0113 343.2147 42.8470 34.3812 349.9202 343.5025 348.2816 66.2610 268.3655 355.2557 12.1090 3.3006 353.3006 359.8412 359.9470 49.0921 5.5347 347.2156 353.1873 13.1049 354.6567 323.1423 5.6237 18.2499 45.3964 12.0676 343.1346 333.3124 307.1396 
-8.4820 87.5605 124.3480 0.0542 339.8344 180.0703 2.6028 351.4896 359.5632 6.2908 7.7932 358.9476 358.7254 333.7151 3.8190 353.5913 8.3001 4.5780 338.0748 356.4781 17.9052 338.5166 54.8024 328.7854 11.5146 350.2413 276.1736 98.3789 357.1343 356.7152 26.5873 355.9882 343.1434 41.9898 35.8824 351.4467 342.2653 347.4434 66.7524 267.8142 355.5308 10.9590 3.5178 351.0979 359.9591 359.6653 53.3454 6.0156 348.1968 353.7945 12.8760 355.6646 323.7283 6.4516 18.0536 45.6041 12.0645 342.3937 333.1734 306.8748 
-8.0506 87.3924 123.0992 0.1173 339.6964 179.8088 2.4994 351.5710 359.8056 6.6933 7.4909 359.1885 358.6089 334.0486 3.6681 353.6019 8.2446 4.4407 337.8014 356.4524 17.7315 337.1502 54.4066 331.1310 10.7475 351.3108 277.5262 98.8330 356.7586 356.3422 26.7934 355.9479 343.0350 40.7781 37.3160 353.1234 341.1744 346.6405 67.4665 267.1068 355.6981 9.8644 3.5610 348.6805 0.0800 359.1419 57.3354 6.8230 349.9964 353.8646 12.3740 356.4884 324.3903 7.2471 18.0811 45.6912 11.8821 341.7180 332.9027 306.5219 
-7.6494 87.2659 121.9130 0.1658 339.4850 179.7265 2.4619 351.6744 359.9078 6.9106 7.1917 359.2981 358.4993 334.0702 3.5591 353.7658 8.3812 4.3642 337.7411 356.4736 17.7147 336.0238 54.1350 332.9288 9.9503 352.2628 278.9543 99.8613 356.7633 356.3272 27.2117 355.8693 343.1544 39.1165 38.3830 354.5291 340.4142 345.9353 69.0711 266.2179 356.1804 8.7814 3.4973 346.4359 0.2825 359.0395 60.7203 6.8848 350.4895 353.5060 12.2236 357.2649 324.8550 8.0820 18.2174 45.8073 12.1209 340.8632 332.7604 305.6165 
-7.2524 87.1836 120.7071 0.0670 339.2332 179.4017 2.2094 351.6881 0.1239 7.2476 6.9690 359.5300 358.3660 334.1915 3.5607 353.9582 8.3822 4.3946 337.8525 356.4795 17.9955 335.2015 54.1696 334.0462 9.3255 352.8935 280.7086 100.0244 356.5965 355.9718 27.6631 355.8271 343.4961 37.5360 39.0714 355.7877 339.9365 345.3308 70.9935 265.2345 356.6386 7.6810 3.4140 343.9750 0.7634 359.5213 63.7883 6.3602 350.1036 352.8787 11.8005 357.8609 325.4979 9.0649 18.3650 45.8191 12.3442 340.0734 332.6212 304.7934 
-6.8775 87.1329 119.4121 359.8990 339.1415 179.0883 1.9416 351.7051 0.3620 7.4406 6.9234 359.7774 358.3780 334.2395 3.5049 353.9465 8.3642 4.3240 337.8874 356.4617 18.0072 333.7734 53.8322 336.1935 8.5234 353.8485 282.2772 99.8489 356.6861 355.4884 27.7043 355.8062 343.0746 35.7267 40.1994 359.0048 339.4058 344.7556 71.6448 264.1991 356.4248 6.6838 3.0721 341.6721 1.3509 0.2140 66.4340 6.0424 349.8443 352.5847 10.9621 358.4053 326.4416 9.9636 18.4974 45.4170 12.0035 339.5441 332.3914 304.5101 
-6.4864 87.1348 118.1293 359.7403 338.9524 178.8403 1.7813 351.6493 0.5322 7.4247 6.8559 359.9629 358.2817 334.2718 3.3910 354.1602 8.2800 4.2109 337.9596 356.5011 17.8056 332.1427 52.9839 338.5884 7.3186 355.1966 283.5420 100.3814 357.5328 355.2008 27.8685 355.7199 342.8026 33.8978 41.1110 1.8983 338.9447 344.1511 72.8625 264.6078 356.5593 5.8590 2.8687 339.3418 1.9674 0.9043 68.8393 4.9979 349.8528 352.0094 10.6863 358.7860 327.3004 10.3236 18.2262 45.1275 12.2787 339.0287 332.1928 304.2418 
-6.1601 87.1664 116.8467 359.4117 338.8484 178.5004 1.5373 351.7028 0.7389 7.3366 6.8015 0.1711 357.9003 334.2313 3.2092 354.7269 8.1133 4.0722 338.1327 356.5752 17.6688 330.7048 52.2643 340.8237 6.1620 356.2074 285.0196 99.8460 356.7476 353.5413 27.9618 355.6756 342.7652 32.2745 41.7684 4.3438 338.6221 343.4988 74.6691 264.5321 357.2683 4.9371 2.6697 336.8787 2.4960 0.9004 70.8512 5.3475 349.2992 352.2795 10.1107 358.8523 328.3076 10.3734 17.7186 44.7538 13.5619 338.5566 332.3074 303.6079 
-5.8429 87.2082 115.5154 359.3145 338.8833 178.4812 1.4801 351.8574 0.8282 7.2129 6.7362 0.3259 357.9253 334.1640 3.0666 354.6639 8.0888 3.9110 338.3900 356.6243 17.5480 329.1722 51.8476 342.8698 5.2500 356.8390 286.7974 98.7636 356.0804 351.5539 27.9546 355.6384 342.4822 30.7468 42.3410 6.8850 338.2765 342.7072 76.4293 264.5293 357.1672 4.9338 2.2774 334.4906 2.7127 359.9137 72.5029 6.2159 353.4321 351.8502 9.7622 358.9483 329.6986 10.1372 17.2958 44.0549 14.2025 337.9585 332.1009 303.2532 
